<svg xmlns="http://www.w3.org/2000/svg" width="900" height="220" viewBox="0 0 900 220" role="img" aria-label="Gabriel Gomes Pimentel. Dados, machine learning e back-end.">
  <rect x="0.5" y="0.5" width="899" height="219" rx="12" fill="#0d1117" stroke="#30363d"/>
  <rect x="40" y="52" width="36" height="4" rx="2" fill="#58a6ff"/>
  <text x="40" y="100" font-family="-apple-system, 'Segoe UI', Helvetica, Arial, sans-serif" font-size="38" font-weight="700" fill="#f0f6fc" letter-spacing="-0.5">Gabriel Gomes Pimentel</text>
  <text x="40" y="134" font-family="-apple-system, 'Segoe UI', Helvetica, Arial, sans-serif" font-size="18" font-weight="500" fill="#58a6ff">Dados · Machine Learning · Back-end</text>
  <text x="40" y="172" font-family="-apple-system, 'Segoe UI', Helvetica, Arial, sans-serif" font-size="14.5" fill="#9198a1">Engenharia da Computação no Inteli  ·  ADS na FGV  ·  São Paulo</text>
  <line x1="545" y1="50" x2="870" y2="50" stroke="#21262d" stroke-width="1"/><line x1="545" y1="90" x2="870" y2="90" stroke="#21262d" stroke-width="1"/><line x1="545" y1="130" x2="870" y2="130" stroke="#21262d" stroke-width="1"/><line x1="545" y1="170" x2="870" y2="170" stroke="#21262d" stroke-width="1"/>
  <path d="M560 172 L 848 66" stroke="#58a6ff" stroke-width="2" stroke-dasharray="5 5" fill="none" opacity="0.8"/>
  <circle cx="560.0" cy="163.9" r="3.6" fill="#58a6ff" opacity="0.95"/><circle cx="571.5" cy="175.9" r="2.6" fill="#1f6feb" opacity="0.7"/><circle cx="583.0" cy="151.4" r="2.6" fill="#1f6feb" opacity="0.7"/><circle cx="594.5" cy="160.0" r="2.6" fill="#1f6feb" opacity="0.7"/><circle cx="606.0" cy="157.6" r="2.6" fill="#1f6feb" opacity="0.7"/><circle cx="617.5" cy="144.9" r="3.6" fill="#58a6ff" opacity="0.95"/><circle cx="629.0" cy="146.3" r="2.6" fill="#1f6feb" opacity="0.7"/><circle cx="640.5" cy="126.6" r="2.6" fill="#1f6feb" opacity="0.7"/><circle cx="652.0" cy="122.3" r="2.6" fill="#1f6feb" opacity="0.7"/><circle cx="663.5" cy="122.8" r="2.6" fill="#1f6feb" opacity="0.7"/><circle cx="675.0" cy="133.8" r="3.6" fill="#58a6ff" opacity="0.95"/><circle cx="686.5" cy="121.5" r="2.6" fill="#1f6feb" opacity="0.7"/><circle cx="698.0" cy="113.7" r="2.6" fill="#1f6feb" opacity="0.7"/><circle cx="709.5" cy="118.1" r="2.6" fill="#1f6feb" opacity="0.7"/><circle cx="721.0" cy="109.7" r="2.6" fill="#1f6feb" opacity="0.7"/><circle cx="732.5" cy="100.6" r="3.6" fill="#58a6ff" opacity="0.95"/><circle cx="744.0" cy="112.2" r="2.6" fill="#1f6feb" opacity="0.7"/><circle cx="755.5" cy="105.0" r="2.6" fill="#1f6feb" opacity="0.7"/><circle cx="767.0" cy="86.2" r="2.6" fill="#1f6feb" opacity="0.7"/><circle cx="778.5" cy="92.6" r="2.6" fill="#1f6feb" opacity="0.7"/><circle cx="790.0" cy="86.8" r="3.6" fill="#58a6ff" opacity="0.95"/><circle cx="801.5" cy="93.8" r="2.6" fill="#1f6feb" opacity="0.7"/><circle cx="813.0" cy="84.9" r="2.6" fill="#1f6feb" opacity="0.7"/><circle cx="824.5" cy="66.6" r="2.6" fill="#1f6feb" opacity="0.7"/><circle cx="836.0" cy="84.6" r="2.6" fill="#1f6feb" opacity="0.7"/><circle cx="847.5" cy="52.8" r="3.6" fill="#58a6ff" opacity="0.95"/>
</svg>
