<svg xmlns="http://www.w3.org/2000/svg" width="900" height="220" viewBox="0 0 900 220" role="img" aria-label="Gabriel Gomes Pimentel. Dados, machine learning e back-end.">
  <rect x="0.5" y="0.5" width="899" height="219" rx="12" fill="#ffffff" stroke="#d0d7de"/>
  <rect x="40" y="52" width="36" height="4" rx="2" fill="#2563eb"/>
  <text x="40" y="100" font-family="-apple-system, 'Segoe UI', Helvetica, Arial, sans-serif" font-size="38" font-weight="700" fill="#0f172a" letter-spacing="-0.5">Gabriel Gomes Pimentel</text>
  <text x="40" y="134" font-family="-apple-system, 'Segoe UI', Helvetica, Arial, sans-serif" font-size="18" font-weight="500" fill="#2563eb">Dados · Machine Learning · Back-end</text>
  <text x="40" y="172" font-family="-apple-system, 'Segoe UI', Helvetica, Arial, sans-serif" font-size="14.5" fill="#57606a">Engenharia da Computação no Inteli  ·  ADS na FGV  ·  São Paulo</text>
  <line x1="545" y1="50" x2="870" y2="50" stroke="#eaeef2" stroke-width="1"/><line x1="545" y1="90" x2="870" y2="90" stroke="#eaeef2" stroke-width="1"/><line x1="545" y1="130" x2="870" y2="130" stroke="#eaeef2" stroke-width="1"/><line x1="545" y1="170" x2="870" y2="170" stroke="#eaeef2" stroke-width="1"/>
  <path d="M560 172 L 848 66" stroke="#2563eb" stroke-width="2" stroke-dasharray="5 5" fill="none" opacity="0.8"/>
  <circle cx="560.0" cy="164.4" r="3.6" fill="#2563eb" opacity="0.95"/><circle cx="571.5" cy="154.6" r="2.6" fill="#93c5fd" opacity="0.7"/><circle cx="583.0" cy="166.4" r="2.6" fill="#93c5fd" opacity="0.7"/><circle cx="594.5" cy="143.7" r="2.6" fill="#93c5fd" opacity="0.7"/><circle cx="606.0" cy="154.3" r="2.6" fill="#93c5fd" opacity="0.7"/><circle cx="617.5" cy="144.7" r="3.6" fill="#2563eb" opacity="0.95"/><circle cx="629.0" cy="130.7" r="2.6" fill="#93c5fd" opacity="0.7"/><circle cx="640.5" cy="140.8" r="2.6" fill="#93c5fd" opacity="0.7"/><circle cx="652.0" cy="121.6" r="2.6" fill="#93c5fd" opacity="0.7"/><circle cx="663.5" cy="130.1" r="2.6" fill="#93c5fd" opacity="0.7"/><circle cx="675.0" cy="114.2" r="3.6" fill="#2563eb" opacity="0.95"/><circle cx="686.5" cy="110.7" r="2.6" fill="#93c5fd" opacity="0.7"/><circle cx="698.0" cy="117.2" r="2.6" fill="#93c5fd" opacity="0.7"/><circle cx="709.5" cy="125.9" r="2.6" fill="#93c5fd" opacity="0.7"/><circle cx="721.0" cy="99.2" r="2.6" fill="#93c5fd" opacity="0.7"/><circle cx="732.5" cy="98.1" r="3.6" fill="#2563eb" opacity="0.95"/><circle cx="744.0" cy="106.9" r="2.6" fill="#93c5fd" opacity="0.7"/><circle cx="755.5" cy="112.9" r="2.6" fill="#93c5fd" opacity="0.7"/><circle cx="767.0" cy="96.9" r="2.6" fill="#93c5fd" opacity="0.7"/><circle cx="778.5" cy="86.9" r="2.6" fill="#93c5fd" opacity="0.7"/><circle cx="790.0" cy="101.2" r="3.6" fill="#2563eb" opacity="0.95"/><circle cx="801.5" cy="67.3" r="2.6" fill="#93c5fd" opacity="0.7"/><circle cx="813.0" cy="89.1" r="2.6" fill="#93c5fd" opacity="0.7"/><circle cx="824.5" cy="66.7" r="2.6" fill="#93c5fd" opacity="0.7"/><circle cx="836.0" cy="57.8" r="2.6" fill="#93c5fd" opacity="0.7"/><circle cx="847.5" cy="52.8" r="3.6" fill="#2563eb" opacity="0.95"/>
</svg>
